<svg width="120" height="120" viewBox="0 0 120 120" fill="none" xmlns="http://www.w3.org/2000/svg">
<g id="Group">
<g id="Vector">
<path d="M112.857 22.5H91.4286C85.9229 22.5 85.72 15.7612 85.7143 15V11.25C85.7143 6.5325 81.7429 0 74.2857 0H45.8029C37.4171 0 34.3743 6.7275 34.3743 11.25V14.9775C34.3714 15.285 34.2371 22.5 28.5714 22.5H7.14286C5.24915 22.503 3.43365 23.4917 2.0946 25.2492C0.755546 27.0067 0.00226837 29.3895 0 31.875L0 99.375C0 104.543 3.20286 108.75 7.14286 108.75H24.2857C24.6646 108.75 25.028 108.552 25.2959 108.201C25.5638 107.849 25.7143 107.372 25.7143 106.875C25.7143 106.378 25.5638 105.901 25.2959 105.549C25.028 105.198 24.6646 105 24.2857 105H7.14286C4.78 105 2.85714 102.476 2.85714 99.375V52.5H25.7143C23.8231 58.4391 22.8518 64.813 22.8571 71.25C22.8571 98.13 39.52 120 60 120C80.48 120 97.1429 98.13 97.1429 71.25C97.1429 64.6087 96.1171 58.275 94.2771 52.5H117.143V99.375C117.143 102.476 115.22 105 112.857 105H92.8571C92.4783 105 92.1149 105.198 91.847 105.549C91.5791 105.901 91.4286 106.378 91.4286 106.875C91.4286 107.372 91.5791 107.849 91.847 108.201C92.1149 108.552 92.4783 108.75 92.8571 108.75H112.857C116.797 108.75 120 104.543 120 99.375V31.875C120 26.7075 116.797 22.5 112.857 22.5ZM60 116.25C41.0943 116.25 25.7143 96.0638 25.7143 71.25C25.7143 46.4362 41.0943 26.25 60 26.25C78.9057 26.25 94.2857 46.4362 94.2857 71.25C94.2857 96.0638 78.9057 116.25 60 116.25ZM93.5714 48.75C93.3678 48.7519 93.1669 48.812 92.9829 48.9262C86.8 33.255 74.3486 22.5 60 22.5C45.6514 22.5 33.2 33.255 27.0171 48.9262C26.8331 48.812 26.6322 48.7519 26.4286 48.75H2.85714V31.875C2.85714 28.7737 4.78 26.25 7.14286 26.25H28.5714C35.3371 26.25 37.1971 18.9075 37.2314 15V11.25C37.2314 8.235 39.5143 3.75 45.8029 3.75H74.2857C80.2686 3.75 82.8571 8.715 82.8571 11.25V15C82.8571 18.8925 84.6486 26.25 91.4286 26.25H112.857C115.22 26.25 117.143 28.7737 117.143 31.875V48.75H93.5714Z" fill="#3944BC" fill-opacity="0.8"/>
<path d="M85.2143 15L85.2143 15.0038C85.2173 15.4034 85.2698 17.3567 86.0472 19.2273C86.4378 20.1672 87.0218 21.1119 87.8988 21.8235C88.784 22.5417 89.9411 23 91.4286 23H112.857C114.637 23 116.287 23.9494 117.508 25.5527C118.73 27.1561 119.5 29.3912 119.5 31.875V99.375C119.5 101.859 118.73 104.094 117.508 105.697C116.287 107.301 114.637 108.25 112.857 108.25H92.8571C92.6616 108.25 92.4359 108.149 92.2447 107.898C92.0514 107.644 91.9286 107.277 91.9286 106.875C91.9286 106.473 92.0514 106.106 92.2447 105.852C92.4359 105.601 92.6616 105.5 92.8571 105.5H112.857C114.228 105.5 115.436 104.767 116.284 103.653C117.132 102.541 117.643 101.026 117.643 99.375V52.5V52H117.143H94.2772H93.5931L93.8007 52.6518C95.625 58.3775 96.6429 64.66 96.6429 71.25C96.6429 84.59 92.5075 96.6688 85.8537 105.402C79.2001 114.135 70.0502 119.5 60 119.5C49.9498 119.5 40.7999 114.135 34.1463 105.402C27.4925 96.6688 23.3571 84.59 23.3571 71.25V71.2496C23.3519 64.8625 24.3157 58.54 26.1907 52.6517L26.3982 52H25.7143H2.85714H2.35714V52.5V99.375C2.35714 101.026 2.86825 102.541 3.71621 103.653C4.56432 104.767 5.77162 105.5 7.14286 105.5H24.2857C24.4813 105.5 24.707 105.601 24.8982 105.852C25.0915 106.106 25.2143 106.473 25.2143 106.875C25.2143 107.277 25.0915 107.644 24.8982 107.898C24.707 108.149 24.4813 108.25 24.2857 108.25H7.14286C5.36268 108.25 3.71285 107.301 2.49168 105.697C1.27035 104.094 0.5 101.859 0.5 99.375V31.8752C0.502227 29.4848 1.22775 27.2119 2.49232 25.5522C3.75476 23.8952 5.43289 23.0027 7.14364 23H28.5714C30.1042 23 31.2893 22.5084 32.1899 21.7504C33.0814 21.0001 33.6698 20.01 34.0602 19.0409C34.8378 17.1108 34.8727 15.1548 34.8743 14.9821V14.9775V11.25C34.8743 9.08725 35.6052 6.38953 37.3334 4.24259C39.0475 2.11324 41.7615 0.5 45.8029 0.5H74.2857C81.4016 0.5 85.2143 6.7387 85.2143 11.25L85.2143 15ZM92.5177 49.1098L92.7376 49.6669L93.2465 49.3511C93.3572 49.2824 93.4685 49.2514 93.574 49.25H117.143H117.643V48.75V31.875C117.643 30.2244 117.132 28.7095 116.284 27.5965C115.436 26.4834 114.228 25.75 112.857 25.75H91.4286C88.2629 25.75 86.2674 24.0504 85.0372 21.8414C83.7945 19.6101 83.3571 16.8878 83.3571 15V11.25C83.3571 9.84343 82.6533 7.85302 81.1875 6.21586C79.7055 4.5605 77.4306 3.25 74.2857 3.25H45.8029C42.5285 3.25 40.2471 4.423 38.7883 6.03374C37.3418 7.63097 36.7314 9.62845 36.7314 11.25V14.9978C36.7145 16.8928 36.2521 19.6146 34.9905 21.8441C33.7407 24.053 31.7308 25.75 28.5714 25.75H7.14286C5.77162 25.75 4.56432 26.4834 3.71621 27.5965C2.86825 28.7095 2.35714 30.2244 2.35714 31.875V48.75V49.25H2.85714H26.4261C26.5315 49.2514 26.6428 49.2824 26.7535 49.3511L27.2624 49.6669L27.4823 49.1098C33.6176 33.559 45.9233 23 60 23C74.0767 23 86.3824 33.559 92.5177 49.1098ZM25.2143 71.25C25.2143 83.7568 29.0897 95.1155 35.3698 103.358C41.6501 111.601 50.3574 116.75 60 116.75C69.6426 116.75 78.3499 111.601 84.6302 103.358C90.9103 95.1155 94.7857 83.7568 94.7857 71.25C94.7857 58.7432 90.9103 47.3845 84.6302 39.1418C78.3499 30.899 69.6426 25.75 60 25.75C50.3574 25.75 41.6501 30.899 35.3698 39.1418C29.0897 47.3845 25.2143 58.7432 25.2143 71.25Z" stroke="#3944BC" stroke-opacity="0.8"/>
</g>
<g id="Vector_2">
<path d="M27.1428 18.75C27.5217 18.75 27.8851 18.5525 28.153 18.2008C28.4209 17.8492 28.5714 17.3723 28.5714 16.875V13.125C28.5714 10.0238 26.6485 7.5 24.2857 7.5H12.8571C10.4943 7.5 8.57141 10.0238 8.57141 13.125V16.875C8.57141 17.3723 8.72192 17.8492 8.98983 18.2008C9.25774 18.5525 9.6211 18.75 9.99998 18.75C10.3789 18.75 10.7422 18.5525 11.0101 18.2008C11.278 17.8492 11.4286 17.3723 11.4286 16.875V13.125C11.4286 12.6277 11.5791 12.1508 11.847 11.7992C12.1149 11.4475 12.4782 11.25 12.8571 11.25H24.2857C24.6646 11.25 25.0279 11.4475 25.2958 11.7992C25.5637 12.1508 25.7143 12.6277 25.7143 13.125V16.875C25.7143 17.3723 25.8648 17.8492 26.1327 18.2008C26.4006 18.5525 26.7639 18.75 27.1428 18.75ZM59.9999 37.5C45.82 37.5 34.2857 52.6425 34.2857 71.2501C34.2857 89.8576 45.82 105 59.9999 105C74.1799 105 85.7142 89.8576 85.7142 71.2501C85.7142 52.6425 74.1799 37.5 59.9999 37.5ZM59.9999 101.25C47.3971 101.25 37.1428 87.7913 37.1428 71.2501C37.1428 54.7088 47.3971 41.25 59.9999 41.25C72.6028 41.25 82.8571 54.7088 82.8571 71.2501C82.8571 87.7913 72.6028 101.25 59.9999 101.25Z" fill="#3944BC" fill-opacity="0.8"/>
<path d="M27.7553 17.8978C27.5641 18.1487 27.3384 18.25 27.1428 18.25C26.9472 18.25 26.7216 18.1487 26.5304 17.8978C26.337 17.644 26.2143 17.2772 26.2143 16.875V13.125C26.2143 12.5326 26.036 11.9457 25.6936 11.4962C25.3489 11.0438 24.8479 10.75 24.2857 10.75H12.8571C12.2949 10.75 11.7939 11.0438 11.4493 11.4962C11.1068 11.9457 10.9286 12.5326 10.9286 13.125V16.875C10.9286 17.2772 10.8058 17.644 10.6124 17.8978C10.4212 18.1487 10.1956 18.25 9.99998 18.25C9.8044 18.25 9.57872 18.1487 9.38755 17.8978C9.1942 17.644 9.07141 17.2772 9.07141 16.875V13.125C9.07141 11.6744 9.52173 10.3768 10.2259 9.45255C10.9299 8.52851 11.8655 8 12.8571 8H24.2857C25.2773 8 26.2129 8.52851 26.9169 9.45255C27.6211 10.3768 28.0714 11.6744 28.0714 13.125V16.875C28.0714 17.2772 27.9486 17.644 27.7553 17.8978ZM34.7857 71.2501C34.7857 62.0463 37.6389 53.7174 42.223 47.7002C46.8071 41.6832 53.0998 38 60 38C66.9002 38 73.1928 41.6832 77.7769 47.7002C82.361 53.7174 85.2142 62.0463 85.2142 71.2501C85.2142 80.4539 82.361 88.7827 77.7769 94.7999C73.1928 100.817 66.9002 104.5 60 104.5C53.0998 104.5 46.8071 100.817 42.223 94.7999C37.6389 88.7827 34.7857 80.4539 34.7857 71.2501ZM36.6428 71.2501C36.6428 79.6207 39.2368 87.2294 43.4476 92.7561C47.6586 98.283 53.5087 101.75 60 101.75C66.4912 101.75 72.3413 98.283 76.5523 92.7561C80.7631 87.2294 83.3571 79.6207 83.3571 71.2501C83.3571 62.8795 80.7631 55.2708 76.5523 49.7441C72.3413 44.2171 66.4912 40.75 60 40.75C53.5087 40.75 47.6586 44.2171 43.4476 49.7441C39.2368 55.2708 36.6428 62.8795 36.6428 71.2501Z" stroke="#3944BC" stroke-opacity="0.8"/>
</g>
</g>
</svg>
