<svg width="120" height="120" viewBox="0 0 120 120" fill="none" xmlns="http://www.w3.org/2000/svg">
<g id="fa:television" clip-path="url(#clip0_121_5806)">
<path id="Vector" d="M64 99H63V100V110V111H64H86C86.2694 111 86.465 111.088 86.6566 111.328C86.8612 111.584 87 111.948 87 112.5V117.5C87 118.052 86.8612 118.416 86.6566 118.672C86.465 118.912 86.2694 119 86 119H34C33.7306 119 33.535 118.912 33.3434 118.672C33.1388 118.416 33 118.052 33 117.5V112.5C33 111.948 33.1388 111.584 33.3434 111.328C33.535 111.088 33.7306 111 34 111H56H57V110V100V99H56H10C7.59874 99 5.51691 97.9516 3.71837 95.7034C1.91581 93.4502 1 90.7338 1 87.5V12.5C1 9.26623 1.91581 6.54976 3.71837 4.29657C5.51691 2.04839 7.59874 1 10 1H110C112.401 1 114.483 2.04839 116.282 4.29657C118.084 6.54976 119 9.26623 119 12.5V87.5C119 90.7338 118.084 93.4502 116.282 95.7034C114.483 97.9516 112.401 99 110 99H64ZM113 87.5V12.5C113 11.6125 112.735 10.8022 112.187 10.1175C111.638 9.4306 110.899 9 110 9H10C9.10112 9 8.36239 9.4306 7.81288 10.1175C7.26511 10.8022 7 11.6125 7 12.5V87.5C7 88.3875 7.26511 89.1978 7.81288 89.8825C8.36239 90.5694 9.10112 91 10 91H110C110.899 91 111.638 90.5694 112.187 89.8825C112.735 89.1978 113 88.3875 113 87.5Z" stroke="#3944BC" stroke-opacity="0.8" stroke-width="2"/>
<path id="Vector_2" d="M75.2941 64.0554C75.1444 64.0554 74.9984 64.0683 74.8565 64.093L75.6188 62.2931C77.7186 62.493 79.5 64.612 79.5 67.3332C79.5 70.1936 77.5316 72.3888 75.2941 72.3888C73.0566 72.3888 71.0883 70.1936 71.0883 67.3332C71.0883 66.506 71.2529 65.7344 71.541 65.0554H73.2448C72.7408 65.6588 72.4412 66.4752 72.4412 67.3332C72.4412 69.0561 73.6493 70.611 75.2941 70.611C76.939 70.611 78.1471 69.0561 78.1471 67.3332C78.1471 65.6103 76.939 64.0554 75.2941 64.0554ZM72.1001 64.0554C72.7157 63.1957 73.5627 62.5917 74.5 62.3706L73.7864 64.0554H72.1001ZM72.4303 62.2777C71.8262 62.744 71.3133 63.352 70.9229 64.0554H51.4301C51.0396 63.352 50.5267 62.744 49.9227 62.2777H50H72.4303ZM47.8326 62.3659C48.7779 62.583 49.6328 63.1895 50.2529 64.0554H48.2353C48.1878 64.0554 48.1055 64.035 47.9913 63.9615C47.8803 63.89 47.7693 63.7873 47.6756 63.6767C47.6571 63.6549 47.6134 63.571 47.6019 63.3945C47.5914 63.2334 47.6121 63.052 47.6547 62.8965L47.8326 62.3659ZM42.8529 67.3332C42.8529 64.5818 44.6741 62.4459 46.8043 62.2871L46.7024 62.5909L46.6986 62.6024L46.6953 62.614C46.6222 62.8729 46.5853 63.1729 46.604 63.4595C46.6165 63.6513 46.6563 63.8713 46.7528 64.0737C45.2663 64.2524 44.2059 65.7191 44.2059 67.3332C44.2059 69.0561 45.414 70.611 47.0588 70.611C48.7037 70.611 49.9118 69.0561 49.9118 67.3332C49.9118 66.4752 49.6121 65.6588 49.1082 65.0554H50.8119C51.1001 65.7344 51.2647 66.506 51.2647 67.3332C51.2647 70.1936 49.2963 72.3888 47.0588 72.3888C44.8213 72.3888 42.8529 70.1936 42.8529 67.3332ZM49.4214 61.9362C49.0267 61.7009 48.6015 61.5224 48.1528 61.411L49.8858 56.2422L49.9191 56.1428L49.9098 56.0384L47.6745 31.1773L47.6335 30.7221H47.1765H40.5V28.9443H48.2353C48.4728 28.9443 48.8142 29.1985 48.9156 29.7597L49.2491 33.4999H48.9118V33.9999V36.7777V37.2777H49.4118H49.5859L51.0893 54.1387L50.2343 54.3475L49.7822 54.4579L49.86 54.9167L50.3306 57.6945L50.4204 58.225L50.6636 58.1652L49.5251 61.6212L49.4214 61.9362ZM77.6471 36.2777H50.5007L50.3422 34.4999H78.8236C79.0353 34.4999 79.1878 34.5784 79.295 34.705C79.4085 34.839 79.5 35.0633 79.5 35.3888V49.2777C79.5 49.8137 79.2421 50.1095 78.9439 50.1799L78.9394 50.181L52.186 56.761C52.2133 56.6734 52.2327 56.5884 52.2451 56.5003C52.2648 56.3608 52.2648 56.2254 52.2647 56.0995L52.2647 56.0832V56.061L52.2627 56.0388L52.1617 54.9061L77.7657 48.6523L78.1471 48.5591V48.1666V36.7777V36.2777H77.6471ZM51.1722 56.6212L51.1661 56.6396L50.9237 55.2085L51.1792 55.1461L51.2647 56.1054C51.2646 56.2374 51.2633 56.301 51.2549 56.3605C51.2476 56.4124 51.2326 56.4741 51.1867 56.5827L51.1786 56.6017L51.1722 56.6212Z" stroke="#3944BC" stroke-opacity="0.8"/>
</g>
<defs>
<clipPath id="clip0_121_5806">
<rect width="120" height="120" fill="white"/>
</clipPath>
</defs>
</svg>
