<svg width="46" height="46" viewBox="0 0 46 46" fill="none" xmlns="http://www.w3.org/2000/svg">
<g id="formkit:twitter" clip-path="url(#clip0_406_5806)">
<path id="Vector" d="M23 0C35.7157 0 46 10.2843 46 23C46 35.7157 35.7157 46 23 46C10.2843 46 0 35.7157 0 23C0 10.2843 10.2843 0 23 0ZM18.7943 35.1243C28.98 35.1243 34.5657 26.68 34.5657 19.3529V18.63C35.65 17.8414 36.6029 16.8557 37.3257 15.7386C36.34 16.1657 35.2557 16.4614 34.1386 16.6257C35.2886 15.9357 36.1757 14.8514 36.57 13.57C35.4857 14.1943 34.3029 14.6543 33.0543 14.9171C32.0357 13.8329 30.59 13.1757 29.0129 13.1757C25.9571 13.1757 23.46 15.6729 23.46 18.7286C23.46 19.1557 23.4929 19.5829 23.6243 19.9771C19.0243 19.7471 14.9171 17.5457 12.19 14.1943C11.73 15.0157 11.4343 15.9686 11.4343 16.9871C11.4343 18.8929 12.42 20.6014 13.8986 21.5871C12.9786 21.5871 12.1243 21.3243 11.4014 20.8971V20.9629C11.4014 23.6571 13.3071 25.8914 15.8371 26.4171C15.3771 26.5486 14.8843 26.6143 14.3914 26.6143C14.03 26.6143 13.7014 26.5814 13.34 26.5157C14.03 28.7171 16.1 30.3271 18.4986 30.36C16.5929 31.8386 14.1943 32.7257 11.5986 32.7257C11.1386 32.7257 10.7114 32.7257 10.2843 32.66C12.7157 34.2371 15.64 35.1571 18.7614 35.1571" fill="#151716" fill-opacity="0.5"/>
</g>
<defs>
<clipPath id="clip0_406_5806">
<rect width="46" height="46" fill="white"/>
</clipPath>
</defs>
</svg>
