<svg width="137" height="136" viewBox="0 0 137 136" fill="none" xmlns="http://www.w3.org/2000/svg">
<g id="gg:coffee">
<g id="Group">
<path id="Vector" d="M34.5148 14.1667C33.0119 14.1667 31.5706 14.7638 30.5079 15.8265C29.4452 16.8892 28.8481 18.3305 28.8481 19.8334V31.1667C28.8481 32.6696 29.4452 34.111 30.5079 35.1737C31.5706 36.2364 33.0119 36.8334 34.5148 36.8334C36.0177 36.8334 37.459 36.2364 38.5217 35.1737C39.5845 34.111 40.1815 32.6696 40.1815 31.1667V19.8334C40.1815 18.3305 39.5845 16.8892 38.5217 15.8265C37.459 14.7638 36.0177 14.1667 34.5148 14.1667Z" fill="#001F3F"/>
<path id="Vector_2" fill-rule="evenodd" clip-rule="evenodd" d="M74.1815 121.833C82.2166 121.832 89.992 118.986 96.1293 113.8C102.267 108.614 106.37 101.422 107.711 93.5H108.181C114.193 93.5 119.958 91.1119 124.209 86.8611C128.46 82.6103 130.848 76.8449 130.848 70.8333C130.848 64.8218 128.46 59.0564 124.209 54.8056C119.958 50.5548 114.193 48.1667 108.181 48.1667V42.5H6.18147V87.8333C6.18147 96.8507 9.7636 105.499 16.1398 111.875C22.5161 118.251 31.1641 121.833 40.1815 121.833H74.1815ZM17.5148 53.8333V87.8333C17.5148 93.8449 19.9029 99.6103 24.1537 103.861C28.4045 108.112 34.1699 110.5 40.1815 110.5H74.1815C80.193 110.5 85.9584 108.112 90.2092 103.861C94.4601 99.6103 96.8481 93.8449 96.8481 87.8333V53.8333H17.5148ZM119.515 70.8333C119.515 73.8391 118.321 76.7218 116.195 78.8472C114.07 80.9726 111.187 82.1667 108.181 82.1667V59.5C111.187 59.5 114.07 60.694 116.195 62.8195C118.321 64.9449 119.515 67.8275 119.515 70.8333Z" fill="#001F3F"/>
<path id="Vector_3" d="M51.5148 19.8334C51.5148 18.3305 52.1118 16.8892 53.1745 15.8265C54.2372 14.7638 55.6786 14.1667 57.1815 14.1667C58.6844 14.1667 60.1257 14.7638 61.1884 15.8265C62.2511 16.8892 62.8481 18.3305 62.8481 19.8334V31.1667C62.8481 32.6696 62.2511 34.111 61.1884 35.1737C60.1257 36.2364 58.6844 36.8334 57.1815 36.8334C55.6786 36.8334 54.2372 36.2364 53.1745 35.1737C52.1118 34.111 51.5148 32.6696 51.5148 31.1667V19.8334ZM79.8481 14.1667C78.3452 14.1667 76.9039 14.7638 75.8412 15.8265C74.7785 16.8892 74.1815 18.3305 74.1815 19.8334V31.1667C74.1815 32.6696 74.7785 34.111 75.8412 35.1737C76.9039 36.2364 78.3452 36.8334 79.8481 36.8334C81.351 36.8334 82.7924 36.2364 83.8551 35.1737C84.9178 34.111 85.5148 32.6696 85.5148 31.1667V19.8334C85.5148 18.3305 84.9178 16.8892 83.8551 15.8265C82.7924 14.7638 81.351 14.1667 79.8481 14.1667Z" fill="#001F3F"/>
</g>
</g>
</svg>
