<svg width="120" height="120" viewBox="0 0 120 120" fill="none" xmlns="http://www.w3.org/2000/svg">
<g id="Vector">
<mask id="path-1-inside-1_121_5810" fill="white">
<path d="M95.45 19.0252C95.396 19.7296 95.364 20.533 95.35 21.4043L87.682 26.1809C86.608 25.9513 81.282 26.3557 73.338 21.2426C71.324 19.9461 69.356 19.2574 67.466 19.2574C65.7557 19.2605 64.0702 19.7924 62.548 20.8096C60.542 20.2435 57.652 18.793 55.962 18.7983C52.138 18.8243 43.444 22.8861 41.036 23.233C38.68 23.5696 36.254 24.4148 33.812 25.7609C29.374 24.0757 23.81 21.3235 20.83 19.8026L0 0V63.6783L15.308 73.1791C15.53 72.84 15.784 72.3183 16.06 71.6713L16.534 71.9583C16.766 72.7409 17.022 73.5209 17.302 74.2956C15.622 77.9843 15.422 82.14 16.764 85.753C17.914 88.8444 20.056 91.0148 22.442 91.6226C22.572 93.5478 23.068 95.4104 23.904 97.0252C25.404 99.913 27.788 101.637 30.286 101.637C30.512 101.637 30.738 101.624 30.962 101.59C31.318 102.845 31.84 104.014 32.518 105.026C34.026 107.288 36.138 108.584 38.31 108.584C38.47 108.584 38.626 108.579 38.784 108.563C39.06 109.93 39.53 111.224 40.186 112.377C41.696 115.038 44.026 116.622 46.422 116.622C47.91 116.622 49.332 116.027 50.586 114.913C53.01 116.943 55.118 118.37 56.988 119.246C57.926 119.744 58.902 120 59.898 120C62.254 120 64.54 118.565 66.172 116.056C66.778 115.122 67.27 114.078 67.63 112.962C68.335 113.24 69.0674 113.382 69.804 113.384C72.308 113.384 74.682 111.785 76.324 108.989C77.104 107.663 77.6688 106.145 77.984 104.525C78.156 104.541 78.326 104.549 78.496 104.549C81.39 104.549 84.16 102.334 85.718 98.7678C86.5348 96.9129 86.9683 94.813 86.976 92.6739C89.836 92.1183 92.354 89.4652 93.58 85.5965C94.788 81.7852 94.46 77.58 92.774 74.0739L100.564 68.3478C100.764 69.24 100.96 70.0617 101.15 70.7296L120 57.647V4.28348L95.45 19.0252ZM95.448 26.9478C95.572 29.7704 95.798 32.9609 96.09 36.2922C94.49 32.7861 92.47 31.187 89.962 30.3913L95.448 26.9478ZM84.992 88.92C80.696 86.9922 71.754 73.2809 71.754 73.2809H71.93C72.84 73.1974 74.806 71.9478 77.012 72.5452C73.548 68.6635 69.738 71.9478 67.144 69.9365C67.746 72.4539 70.64 73.247 71.382 73.2783L79.95 86.2748C83.83 92.1574 81.128 99.4357 77.238 100.594C74.628 98.9374 67.258 87.5035 67.258 87.5035C67.51 87.4435 69.004 86.833 70.526 87.0939C67.012 83.6661 63.028 86.64 60.664 84.4878C62.004 88.8052 66.418 87.6991 66.88 87.5948L71.464 95.2278C75.132 101.332 72.25 108.383 68.354 109.338C64.9 107.755 62.658 102.12 62.658 102.12C63.006 102.047 64.17 101.371 65.826 101.684C62.88 98.3165 59.45 101.371 57.388 99.4539C58.662 103.075 61.838 102.25 62.016 102.224C65.192 108.749 61.898 115.552 57.962 115.756H57.958L57.954 115.758C55.59 115.223 53.114 112.758 50.318 110.228C51.278 108.84 52.126 106.401 52.126 106.401C54.934 99.7696 51.29 93.9052 47.528 94.4087C50.58 95.4965 52.868 100.578 50.486 106.221L49.44 108.517C48.304 111.217 46.53 112.847 45.226 112.646C43.218 112.328 40.388 108.503 41.578 103.109C42.038 102.561 46.474 93.7096 46.474 93.7096C49.524 87.3026 46.1 81.1696 42.328 81.3783C45.332 82.7009 47.438 87.9548 44.848 93.4069L41.242 100.74C40.012 103.333 38.42 104.802 36.902 104.53C34.546 104.113 32.894 100.364 33.272 96.4957C33.252 96.5191 35.868 92.7026 35.868 92.7026C39.344 86.7783 36.368 80.1626 32.602 79.8156C35.496 81.5739 37.22 87.1148 34.266 92.1574L32.99 94.1974C31.59 96.5922 29.904 97.8104 28.428 97.3304C25.852 96.4878 24.512 90.2009 25.73 88.4869C26.688 87.1383 29.378 82.8678 29.378 82.8678C32.852 76.9409 29.88 70.3278 26.11 69.9757C29.006 71.7391 30.73 77.28 27.776 82.3252L26.5 84.36C25.092 86.7756 23.4 87.9887 21.914 87.4957C18.818 86.473 17.272 80.2383 20.234 75.1774C20.234 75.1774 19.228 71.0087 18.774 69.227L17.282 68.3244C20.78 57.6939 26.064 34.2313 26.308 26.4365C28.884 27.6339 35.684 30.1852 36.406 30.1904L36.402 30.1957C43.722 27.1957 51.394 27.527 54.894 25.7635C56.028 25.2 58.284 25.1635 60.676 26.9478C59.182 28.6565 57.77 30.6913 56.304 32.5878C52.8 37.1243 39.772 44.1991 42.284 51.6391C44.452 58.0591 50.558 64.6278 60.8 54.3157L66.56 53.2826L75.518 59.0478L86.998 74.4261C91.092 79.8991 88.774 87.3287 84.992 88.92ZM87.872 71.9765C86.556 68.7678 82.454 63.5061 78.582 59.2043L78.558 59.173C80.344 59.267 82.218 55.5157 84.64 55.2261C82.948 53.5409 80.144 55.487 79.27 55.7948C74.452 57.4852 66.964 49.5783 66.964 49.5783L59.8 50.9243C59.8 50.9243 51.28 64.487 44.102 53.3139C40.204 47.2461 54.33 39.3209 57.81 34.8104C62.268 29.0322 66.24 21.9626 73.574 26.7783C79.666 30.7852 82.066 30.5374 90.238 32.3922C92.674 32.9478 94.362 34.4035 96.172 37.2443C97.024 46.5939 98.402 56.9635 99.724 64.1791C99.042 64.9278 93.196 70.0565 87.872 71.9765Z"/>
</mask>
<path d="M95.45 19.0252C95.396 19.7296 95.364 20.533 95.35 21.4043L87.682 26.1809C86.608 25.9513 81.282 26.3557 73.338 21.2426C71.324 19.9461 69.356 19.2574 67.466 19.2574C65.7557 19.2605 64.0702 19.7924 62.548 20.8096C60.542 20.2435 57.652 18.793 55.962 18.7983C52.138 18.8243 43.444 22.8861 41.036 23.233C38.68 23.5696 36.254 24.4148 33.812 25.7609C29.374 24.0757 23.81 21.3235 20.83 19.8026L0 0V63.6783L15.308 73.1791C15.53 72.84 15.784 72.3183 16.06 71.6713L16.534 71.9583C16.766 72.7409 17.022 73.5209 17.302 74.2956C15.622 77.9843 15.422 82.14 16.764 85.753C17.914 88.8444 20.056 91.0148 22.442 91.6226C22.572 93.5478 23.068 95.4104 23.904 97.0252C25.404 99.913 27.788 101.637 30.286 101.637C30.512 101.637 30.738 101.624 30.962 101.59C31.318 102.845 31.84 104.014 32.518 105.026C34.026 107.288 36.138 108.584 38.31 108.584C38.47 108.584 38.626 108.579 38.784 108.563C39.06 109.93 39.53 111.224 40.186 112.377C41.696 115.038 44.026 116.622 46.422 116.622C47.91 116.622 49.332 116.027 50.586 114.913C53.01 116.943 55.118 118.37 56.988 119.246C57.926 119.744 58.902 120 59.898 120C62.254 120 64.54 118.565 66.172 116.056C66.778 115.122 67.27 114.078 67.63 112.962C68.335 113.24 69.0674 113.382 69.804 113.384C72.308 113.384 74.682 111.785 76.324 108.989C77.104 107.663 77.6688 106.145 77.984 104.525C78.156 104.541 78.326 104.549 78.496 104.549C81.39 104.549 84.16 102.334 85.718 98.7678C86.5348 96.9129 86.9683 94.813 86.976 92.6739C89.836 92.1183 92.354 89.4652 93.58 85.5965C94.788 81.7852 94.46 77.58 92.774 74.0739L100.564 68.3478C100.764 69.24 100.96 70.0617 101.15 70.7296L120 57.647V4.28348L95.45 19.0252ZM95.448 26.9478C95.572 29.7704 95.798 32.9609 96.09 36.2922C94.49 32.7861 92.47 31.187 89.962 30.3913L95.448 26.9478ZM84.992 88.92C80.696 86.9922 71.754 73.2809 71.754 73.2809H71.93C72.84 73.1974 74.806 71.9478 77.012 72.5452C73.548 68.6635 69.738 71.9478 67.144 69.9365C67.746 72.4539 70.64 73.247 71.382 73.2783L79.95 86.2748C83.83 92.1574 81.128 99.4357 77.238 100.594C74.628 98.9374 67.258 87.5035 67.258 87.5035C67.51 87.4435 69.004 86.833 70.526 87.0939C67.012 83.6661 63.028 86.64 60.664 84.4878C62.004 88.8052 66.418 87.6991 66.88 87.5948L71.464 95.2278C75.132 101.332 72.25 108.383 68.354 109.338C64.9 107.755 62.658 102.12 62.658 102.12C63.006 102.047 64.17 101.371 65.826 101.684C62.88 98.3165 59.45 101.371 57.388 99.4539C58.662 103.075 61.838 102.25 62.016 102.224C65.192 108.749 61.898 115.552 57.962 115.756H57.958L57.954 115.758C55.59 115.223 53.114 112.758 50.318 110.228C51.278 108.84 52.126 106.401 52.126 106.401C54.934 99.7696 51.29 93.9052 47.528 94.4087C50.58 95.4965 52.868 100.578 50.486 106.221L49.44 108.517C48.304 111.217 46.53 112.847 45.226 112.646C43.218 112.328 40.388 108.503 41.578 103.109C42.038 102.561 46.474 93.7096 46.474 93.7096C49.524 87.3026 46.1 81.1696 42.328 81.3783C45.332 82.7009 47.438 87.9548 44.848 93.4069L41.242 100.74C40.012 103.333 38.42 104.802 36.902 104.53C34.546 104.113 32.894 100.364 33.272 96.4957C33.252 96.5191 35.868 92.7026 35.868 92.7026C39.344 86.7783 36.368 80.1626 32.602 79.8156C35.496 81.5739 37.22 87.1148 34.266 92.1574L32.99 94.1974C31.59 96.5922 29.904 97.8104 28.428 97.3304C25.852 96.4878 24.512 90.2009 25.73 88.4869C26.688 87.1383 29.378 82.8678 29.378 82.8678C32.852 76.9409 29.88 70.3278 26.11 69.9757C29.006 71.7391 30.73 77.28 27.776 82.3252L26.5 84.36C25.092 86.7756 23.4 87.9887 21.914 87.4957C18.818 86.473 17.272 80.2383 20.234 75.1774C20.234 75.1774 19.228 71.0087 18.774 69.227L17.282 68.3244C20.78 57.6939 26.064 34.2313 26.308 26.4365C28.884 27.6339 35.684 30.1852 36.406 30.1904L36.402 30.1957C43.722 27.1957 51.394 27.527 54.894 25.7635C56.028 25.2 58.284 25.1635 60.676 26.9478C59.182 28.6565 57.77 30.6913 56.304 32.5878C52.8 37.1243 39.772 44.1991 42.284 51.6391C44.452 58.0591 50.558 64.6278 60.8 54.3157L66.56 53.2826L75.518 59.0478L86.998 74.4261C91.092 79.8991 88.774 87.3287 84.992 88.92ZM87.872 71.9765C86.556 68.7678 82.454 63.5061 78.582 59.2043L78.558 59.173C80.344 59.267 82.218 55.5157 84.64 55.2261C82.948 53.5409 80.144 55.487 79.27 55.7948C74.452 57.4852 66.964 49.5783 66.964 49.5783L59.8 50.9243C59.8 50.9243 51.28 64.487 44.102 53.3139C40.204 47.2461 54.33 39.3209 57.81 34.8104C62.268 29.0322 66.24 21.9626 73.574 26.7783C79.666 30.7852 82.066 30.5374 90.238 32.3922C92.674 32.9478 94.362 34.4035 96.172 37.2443C97.024 46.5939 98.402 56.9635 99.724 64.1791C99.042 64.9278 93.196 70.0565 87.872 71.9765Z" stroke="#3944BC" stroke-opacity="0.8" stroke-width="4" mask="url(#path-1-inside-1_121_5810)"/>
</g>
</svg>
