<svg width="120" height="120" viewBox="0 0 120 120" fill="none" xmlns="http://www.w3.org/2000/svg">
<path id="Vector" d="M89.0191 49.6805L89.0209 48.6859L89.0341 41.1949C89.0341 41.1944 89.0341 41.1938 89.0341 41.1933C89.0341 41.1932 89.0341 41.1932 89.0341 41.1931C89.0332 37.6065 86.1241 34.6984 82.5361 34.6984H82.5359L7.498 34.6797C7.49792 34.6797 7.49783 34.6797 7.49775 34.6797C3.90919 34.6798 1 37.5888 1 41.1762V97.5105C1 109.378 10.6237 119 22.494 119H67.5589C79.4223 119 88.9366 109.385 88.9366 97.5105V97.5085L88.9441 93.661L88.9461 92.6552L89.9519 92.6629C93.3535 92.6892 96.8151 92.7098 97.5566 92.7098C109.401 92.7098 119 83.1921 119 71.3291L89.0191 49.6805ZM89.0191 49.6805L90.0137 49.6876M89.0191 49.6805L90.0137 49.6876M90.0137 49.6876C93.422 49.712 96.5737 49.7308 97.5547 49.7308M90.0137 49.6876L97.5547 49.7308M6.48632 40.1759L7.48682 40.1762L82.5362 40.1987L83.5376 40.199L83.5359 41.2004L83.4384 97.5105L6.48632 40.1759ZM6.48632 40.1759L6.48652 41.1764M6.48632 40.1759L6.48652 41.1764M6.48652 41.1764L6.49777 97.5105C6.49777 97.5106 6.49777 97.5106 6.49777 97.5107C6.49788 106.332 13.6714 113.503 22.4938 113.503H67.5586C76.3925 113.503 83.4375 106.322 83.4384 97.5122L6.48652 41.1764ZM97.5547 49.7308C109.387 49.7308 118.998 59.4514 119 71.329L97.5547 49.7308ZM88.9555 86.2735L88.9538 87.268L89.9483 87.2752C92.9063 87.2965 95.9199 87.3163 97.1394 87.321L97.1406 87.3222H97.5547C106.676 87.3222 113.622 80.3458 113.622 71.2111C113.622 62.0643 106.662 55.2369 97.5529 55.2369C96.5788 55.2369 93.4282 55.2182 90.0151 55.1938L89.0098 55.1866L89.008 56.192L88.9555 86.2735ZM70.2309 22.4895C70.2309 24.0061 68.9992 25.2378 67.4819 25.2378C65.9642 25.2378 64.7329 24.0076 64.7329 22.4895V3.74825C64.7329 2.23169 65.9645 1 67.4819 1C68.9992 1 70.2309 2.23169 70.2309 3.74825V22.4895ZM25.2429 22.4895C25.2429 24.0061 24.0112 25.2378 22.4939 25.2378C20.9762 25.2378 19.7449 24.0076 19.7449 22.4895V3.74825C19.7449 2.23169 20.9765 1 22.4939 1C24.0112 1 25.2429 2.23169 25.2429 3.74825V22.4895ZM47.7369 22.4895C47.7369 24.0061 46.5052 25.2378 44.9879 25.2378C43.4702 25.2378 42.2389 24.0076 42.2389 22.4895V3.74825C42.2389 2.23169 43.4705 1 44.9879 1C46.5052 1 47.7369 2.23169 47.7369 3.74825V22.4895Z" stroke="#3944BC" stroke-opacity="0.8" stroke-width="2"/>
</svg>
