<svg width="50" height="50" viewBox="0 0 50 50" fill="none" xmlns="http://www.w3.org/2000/svg">
<g id="bi:instagram">
<path id="Vector" d="M25.5 13C22.1078 13 21.6813 13.0156 20.3484 13.075C19.0156 13.1375 18.1078 13.3469 17.3125 13.6562C16.4783 13.97 15.7226 14.4622 15.0984 15.0984C14.4626 15.723 13.9705 16.4785 13.6562 17.3125C13.3469 18.1063 13.1359 19.0156 13.075 20.3437C13.0156 21.6797 13 22.1047 13 25.5016C13 28.8953 13.0156 29.3203 13.075 30.6531C13.1375 31.9844 13.3469 32.8922 13.6562 33.6875C13.9766 34.5094 14.4031 35.2062 15.0984 35.9016C15.7922 36.5969 16.4891 37.025 17.3109 37.3437C18.1078 37.6531 19.0141 37.8641 20.3453 37.925C21.6797 37.9844 22.1047 38 25.5 38C28.8953 38 29.3188 37.9844 30.6531 37.925C31.9828 37.8625 32.8938 37.6531 33.6891 37.3437C34.5228 37.0298 35.2778 36.5376 35.9016 35.9016C36.5969 35.2062 37.0234 34.5094 37.3437 33.6875C37.6516 32.8922 37.8625 31.9844 37.925 30.6531C37.9844 29.3203 38 28.8953 38 25.5C38 22.1047 37.9844 21.6797 37.925 20.3453C37.8625 19.0156 37.6516 18.1063 37.3437 17.3125C37.0296 16.4785 36.5374 15.7229 35.9016 15.0984C35.2775 14.462 34.5219 13.9698 33.6875 13.6562C32.8906 13.3469 31.9812 13.1359 30.6516 13.075C29.3172 13.0156 28.8938 13 25.4969 13H25.5016H25.5ZM24.3797 15.2531H25.5016C28.8391 15.2531 29.2344 15.2641 30.5516 15.325C31.7703 15.3797 32.4328 15.5844 32.8734 15.7547C33.4562 15.9813 33.8734 16.2531 34.3109 16.6906C34.7484 17.1281 35.0188 17.5438 35.2453 18.1281C35.4172 18.5672 35.6203 19.2297 35.675 20.4484C35.7359 21.7656 35.7484 22.1609 35.7484 25.4969C35.7484 28.8328 35.7359 29.2297 35.675 30.5469C35.6203 31.7656 35.4156 32.4266 35.2453 32.8672C35.0449 33.4099 34.725 33.9007 34.3094 34.3031C33.8719 34.7406 33.4563 35.0109 32.8719 35.2375C32.4344 35.4094 31.7719 35.6125 30.5516 35.6688C29.2344 35.7281 28.8391 35.7422 25.5016 35.7422C22.1641 35.7422 21.7672 35.7281 20.45 35.6688C19.2313 35.6125 18.5703 35.4094 18.1297 35.2375C17.5867 35.0374 17.0955 34.7181 16.6922 34.3031C16.2762 33.9001 15.9558 33.4088 15.7547 32.8656C15.5844 32.4266 15.3797 31.7641 15.325 30.5453C15.2656 29.2281 15.2531 28.8328 15.2531 25.4937C15.2531 22.1562 15.2656 21.7625 15.325 20.4453C15.3813 19.2266 15.5844 18.5641 15.7563 18.1234C15.9828 17.5406 16.2547 17.1234 16.6922 16.6859C17.1297 16.2484 17.5453 15.9781 18.1297 15.7516C18.5703 15.5797 19.2313 15.3766 20.45 15.3203C21.6031 15.2672 22.05 15.2516 24.3797 15.25V15.2531ZM32.1734 17.3281C31.9765 17.3281 31.7814 17.3669 31.5994 17.4423C31.4174 17.5177 31.2521 17.6282 31.1128 17.7675C30.9735 17.9068 30.863 18.0721 30.7876 18.2541C30.7122 18.4361 30.6734 18.6311 30.6734 18.8281C30.6734 19.0251 30.7122 19.2202 30.7876 19.4021C30.863 19.5841 30.9735 19.7495 31.1128 19.8888C31.2521 20.0281 31.4174 20.1386 31.5994 20.2139C31.7814 20.2893 31.9765 20.3281 32.1734 20.3281C32.5713 20.3281 32.9528 20.1701 33.2341 19.8888C33.5154 19.6075 33.6734 19.2259 33.6734 18.8281C33.6734 18.4303 33.5154 18.0488 33.2341 17.7675C32.9528 17.4862 32.5713 17.3281 32.1734 17.3281ZM25.5016 19.0812C24.6501 19.068 23.8045 19.2242 23.014 19.5408C22.2235 19.8575 21.5039 20.3282 20.8971 20.9257C20.2903 21.5231 19.8084 22.2353 19.4794 23.0207C19.1505 23.8062 18.9811 24.6492 18.9811 25.5008C18.9811 26.3523 19.1505 27.1954 19.4794 27.9808C19.8084 28.7663 20.2903 29.4785 20.8971 30.0759C21.5039 30.6733 22.2235 31.1441 23.014 31.4607C23.8045 31.7774 24.6501 31.9336 25.5016 31.9203C27.1868 31.894 28.7941 31.2061 29.9765 30.0051C31.159 28.804 31.8217 27.1862 31.8217 25.5008C31.8217 23.8154 31.159 22.1975 29.9765 20.9965C28.7941 19.7954 27.1868 19.1075 25.5016 19.0812ZM25.5016 21.3328C26.6068 21.3328 27.6667 21.7719 28.4482 22.5534C29.2297 23.3349 29.6688 24.3948 29.6688 25.5C29.6688 26.6052 29.2297 27.6651 28.4482 28.4466C27.6667 29.2281 26.6068 29.6672 25.5016 29.6672C24.3964 29.6672 23.3364 29.2281 22.5549 28.4466C21.7734 27.6651 21.3344 26.6052 21.3344 25.5C21.3344 24.3948 21.7734 23.3349 22.5549 22.5534C23.3364 21.7719 24.3964 21.3328 25.5016 21.3328Z" fill="#FF0000"/>
<rect x="0.5" y="0.5" width="49" height="49" rx="15.5" stroke="#3944BC" stroke-opacity="0.8"/>
</g>
</svg>
