<svg width="126" height="125" viewBox="0 0 126 125" fill="none" xmlns="http://www.w3.org/2000/svg">
<g id="majesticons:image-photography-line">
<g id="Group">
<path id="Vector" d="M36.9584 41.6667C34.3542 41.6667 29.1459 43.2292 29.1459 49.4792C29.1459 55.7292 34.3542 57.2917 36.9584 57.2917M10.9167 88.5417V104.167C10.9167 106.929 12.0142 109.579 13.9677 111.532C15.9212 113.486 18.5707 114.583 21.3334 114.583H78.625M10.9167 88.5417V31.2501C10.9167 28.4874 12.0142 25.8379 13.9677 23.8844C15.9212 21.9309 18.5707 20.8334 21.3334 20.8334H36.9584M10.9167 88.5417C18.224 87.323 29.8594 87.0157 41.8802 89.8074M78.625 114.583H94.25C97.0127 114.583 99.6622 113.486 101.616 111.532C103.569 109.579 104.667 106.929 104.667 104.167V72.9167M78.625 114.583C69.75 100.167 55.5677 92.9792 41.8802 89.8074M41.8802 89.8074C47.5834 83.2032 56.099 77.047 68.4219 72.9167M52.5834 52.0834V26.0417C52.5834 24.6604 53.1321 23.3357 54.1088 22.3589C55.0856 21.3821 56.4103 20.8334 57.7917 20.8334H63L73.4167 10.4167H94.25L104.667 20.8334H109.875C111.256 20.8334 112.581 21.3821 113.558 22.3589C114.535 23.3357 115.083 24.6604 115.083 26.0417V52.0834C115.083 53.4647 114.535 54.7895 113.558 55.7663C112.581 56.743 111.256 57.2917 109.875 57.2917H57.7917C56.4103 57.2917 55.0856 56.743 54.1088 55.7663C53.1321 54.7895 52.5834 53.4647 52.5834 52.0834Z" stroke="#001F3F" stroke-width="10" stroke-linecap="round" stroke-linejoin="round"/>
<path id="Vector_2" d="M83.8333 41.6667C86.7098 41.6667 89.0417 39.3348 89.0417 36.4583C89.0417 33.5819 86.7098 31.25 83.8333 31.25C80.9569 31.25 78.625 33.5819 78.625 36.4583C78.625 39.3348 80.9569 41.6667 83.8333 41.6667Z" stroke="#001F3F" stroke-width="5" stroke-linecap="round" stroke-linejoin="round"/>
</g>
</g>
</svg>
