<svg width="50" height="50" viewBox="0 0 50 50" fill="none" xmlns="http://www.w3.org/2000/svg">
<g id="mingcute:facebook-fill">
<rect width="50" height="50" fill="white"/>
<path id="Vector" d="M28.125 45.5998C38.1479 44.0915 45.8334 35.4436 45.8334 24.9998C45.8334 13.4936 36.5063 4.1665 25 4.1665C13.4938 4.1665 4.16669 13.4936 4.16669 24.9998C4.16669 35.4436 11.8521 44.0936 21.875 45.5998V31.2498H18.75C17.9212 31.2498 17.1264 30.9206 16.5403 30.3345C15.9543 29.7485 15.625 28.9536 15.625 28.1248C15.625 27.296 15.9543 26.5012 16.5403 25.9151C17.1264 25.3291 17.9212 24.9998 18.75 24.9998H21.875V20.8332C21.875 18.8993 22.6432 17.0446 24.0107 15.6772C25.3782 14.3097 27.2328 13.5415 29.1667 13.5415H30.2084C31.0372 13.5415 31.832 13.8707 32.4181 14.4568C33.0041 15.0428 33.3334 15.8377 33.3334 16.6665C33.3334 17.4953 33.0041 18.2902 32.4181 18.8762C31.832 19.4623 31.0372 19.7915 30.2084 19.7915H29.1667C28.8904 19.7915 28.6255 19.9012 28.4301 20.0966C28.2348 20.292 28.125 20.5569 28.125 20.8332V24.9998H31.25C32.0788 24.9998 32.8737 25.3291 33.4597 25.9151C34.0458 26.5012 34.375 27.296 34.375 28.1248C34.375 28.9536 34.0458 29.7485 33.4597 30.3345C32.8737 30.9206 32.0788 31.2498 31.25 31.2498H28.125V45.5998Z" fill="#151716" fill-opacity="0.5"/>
</g>
</svg>
