<svg width="139" height="140" viewBox="0 0 139 140" fill="none" xmlns="http://www.w3.org/2000/svg">
<g id="nimbus:marketing" clip-path="url(#clip0_410_5771)">
<path id="Vector" d="M123.797 18.7436C122.303 17.7774 120.595 17.1929 118.823 17.0414C117.051 16.8899 115.268 17.1761 113.632 17.8749L60.0306 38.9855C58.7616 39.502 57.4045 39.7675 56.0344 39.7674H21.7188C18.8387 39.7674 16.0765 40.9115 14.04 42.948C12.0035 44.9845 10.8594 47.7467 10.8594 50.6268V51.4955H0V77.558H10.8594V78.6874C10.9274 81.5221 12.1015 84.2177 14.1307 86.1982C16.1599 88.1787 18.8833 89.2869 21.7188 89.2861L34.75 116.912C35.6324 118.773 37.0216 120.347 38.7581 121.453C40.4946 122.559 42.5079 123.154 44.5669 123.167H50.04C52.905 123.144 55.6449 121.99 57.6626 119.956C59.6804 117.922 60.8126 115.173 60.8125 112.308V90.3286L113.632 111.439C114.932 111.956 116.317 112.222 117.716 112.221C119.885 112.186 121.998 111.522 123.797 110.31C125.226 109.345 126.404 108.054 127.235 106.543C128.066 105.033 128.525 103.346 128.575 101.622V27.6918C128.567 25.924 128.128 24.1849 127.295 22.6255C126.462 21.0661 125.261 19.7336 123.797 18.7436ZM49.9531 50.6268V78.6874H21.7188V50.6268H49.9531ZM49.9531 112.308H44.48L33.7944 89.2861H49.9531V112.308ZM64.0269 79.9905C62.9954 79.4634 61.9199 79.0273 60.8125 78.6874V50.0186C61.9093 49.7923 62.9846 49.4726 64.0269 49.063L117.716 27.6918V101.362L64.0269 79.9905ZM128.836 53.6674V75.3861C131.716 75.3861 134.478 74.242 136.514 72.2055C138.551 70.169 139.695 67.4068 139.695 64.5268C139.695 61.6467 138.551 58.8845 136.514 56.848C134.478 54.8115 131.716 53.6674 128.836 53.6674Z" fill="#001F3F"/>
</g>
<defs>
<clipPath id="clip0_410_5771">
<rect width="139" height="139" fill="white" transform="translate(0 0.5)"/>
</clipPath>
</defs>
</svg>
