<svg width="120" height="120" viewBox="0 0 120 120" fill="none" xmlns="http://www.w3.org/2000/svg">
<path id="Vector" d="M11.6316 108V109H12.6316H43.2105V119H12.6316C6.12438 119 1 114.06 1 108V12C1 9.09965 2.21232 6.30704 4.38845 4.23972C6.56632 2.17074 9.53061 1 12.6316 1H88.4211C91.522 1 94.4863 2.17074 96.6642 4.23972C98.8403 6.30704 100.053 9.09965 100.053 12V49.1998C98.803 49.8848 97.586 50.694 96.5113 51.715L89.4211 58.4507V12V11H88.4211H56.8421H55.8421V12V57.8293L41.7025 45.7399L41.0526 45.1843L40.4028 45.7399L26.2632 57.8293V12V11H25.2632H12.6316H11.6316V12V108ZM106.857 61.625L106.866 61.6162L106.876 61.6071C107.675 60.8073 109.14 60.782 110.027 61.625L118.364 69.545C119.223 70.3612 119.195 71.6646 118.383 72.3976L118.373 72.4062L118.364 72.415L112.863 77.6407L101.431 66.78L106.857 61.625ZM69.3275 119H57.8421V108.189L95.5562 72.3609L106.991 83.2776L69.3275 119Z" stroke="#3944BC" stroke-opacity="0.8" stroke-width="2"/>
</svg>
