<svg width="120" height="120" viewBox="0 0 120 120" fill="none" xmlns="http://www.w3.org/2000/svg">
<path id="Vector" d="M79.9103 46.9761L79.911 46.9767C80.1045 47.1299 80.2793 47.3512 80.406 47.6326C80.5326 47.9141 80.6023 48.2371 80.6023 48.5714C80.6023 48.9057 80.5326 49.2288 80.406 49.5103C80.2793 49.7917 80.1045 50.0129 79.911 50.1662L79.9103 50.1667L51.1103 73.0239L51.1096 73.0244C50.8989 73.192 50.6731 73.2742 50.4578 73.2867C50.2432 73.2991 50.0185 73.2437 49.804 73.1071C49.5869 72.9685 49.3835 72.7477 49.2336 72.4491C49.0836 72.1504 48.9996 71.7974 49 71.4296V71.4286V25.7143V25.7137C48.9998 25.3459 49.084 24.993 49.2341 24.6943C49.3841 24.3959 49.5876 24.1752 49.8047 24.0368C50.0192 23.9001 50.244 23.8446 50.4586 23.857C50.6738 23.8694 50.8994 23.9515 51.11 24.1188L51.1103 24.119L79.9103 46.9761ZM48 25.7143V71.4286C47.9995 71.9459 48.117 72.4537 48.34 72.8978C48.5629 73.3419 48.883 73.7056 49.266 73.95C49.6494 74.1944 50.0813 74.3102 50.5156 74.285C50.95 74.2599 51.3704 74.0947 51.732 73.8071L80.532 50.95C80.8612 50.6892 81.1312 50.3356 81.3179 49.9206C81.5046 49.5057 81.6023 49.0422 81.6023 48.5714C81.6023 48.1007 81.5046 47.6372 81.3179 47.2222C81.1312 46.8073 80.8612 46.4537 80.532 46.1929L48 25.7143ZM51.8 66.0929V68.1634L53.4217 66.8761L75.4957 49.3547L76.4825 48.5714L75.4957 47.7882L53.4217 30.2668L51.8 28.9795V31.05V66.0929ZM7.2 1H112.8C114.382 1 115.944 1.74702 117.125 3.1537C118.311 4.56557 119 6.51246 119 8.57143V88.5714C119 90.6304 118.311 92.5773 117.125 93.9892C115.944 95.3958 114.382 96.1429 112.8 96.1429H7.2C5.61752 96.1429 4.05615 95.3958 2.87454 93.9892C1.68857 92.5773 1 90.6304 1 88.5714V8.57143C1 6.51246 1.68857 4.56557 2.87454 3.1537C4.05615 1.74702 5.61752 1 7.2 1ZM115.263 91.2349C115.877 90.5035 116.2 89.5435 116.2 88.5714V8.57143C116.2 7.59935 115.877 6.63934 115.263 5.90793C114.644 5.17135 113.764 4.71429 112.8 4.71429H7.2C6.2364 4.71429 5.35597 5.17134 4.73724 5.90793C4.12286 6.63934 3.8 7.59936 3.8 8.57143V88.5714C3.8 89.5435 4.12286 90.5035 4.73724 91.2349C5.35597 91.9715 6.2364 92.4286 7.2 92.4286H112.8C113.764 92.4286 114.644 91.9715 115.263 91.2349ZM119 117.143C119 117.686 118.817 118.18 118.531 118.52C118.25 118.855 117.909 119 117.6 119H2.4C2.09056 119 1.75009 118.855 1.46865 118.52C1.18286 118.18 1 117.686 1 117.143C1 116.599 1.18286 116.106 1.46865 115.766C1.75009 115.431 2.09056 115.286 2.4 115.286H117.6C117.909 115.286 118.25 115.431 118.531 115.766C118.817 116.106 119 116.599 119 117.143Z" stroke="#3944BC" stroke-opacity="0.8" stroke-width="2"/>
</svg>
