<svg width="50" height="50" viewBox="0 0 50 50" fill="none" xmlns="http://www.w3.org/2000/svg">
<g id="ri:instagram-line">
<path id="Vector" d="M25.0021 18.7498C23.3445 18.7498 21.7548 19.4083 20.5827 20.5804C19.4106 21.7525 18.7521 23.3422 18.7521 24.9998C18.7521 26.6574 19.4106 28.2472 20.5827 29.4193C21.7548 30.5914 23.3445 31.2498 25.0021 31.2498C26.6597 31.2498 28.2494 30.5914 29.4215 29.4193C30.5936 28.2472 31.2521 26.6574 31.2521 24.9998C31.2521 23.3422 30.5936 21.7525 29.4215 20.5804C28.2494 19.4083 26.6597 18.7498 25.0021 18.7498ZM25.0021 14.5832C27.7648 14.5832 30.4143 15.6806 32.3678 17.6341C34.3213 19.5876 35.4188 22.2372 35.4188 24.9998C35.4188 27.7625 34.3213 30.412 32.3678 32.3655C30.4143 34.319 27.7648 35.4165 25.0021 35.4165C22.2394 35.4165 19.5899 34.319 17.6364 32.3655C15.6829 30.412 14.5854 27.7625 14.5854 24.9998C14.5854 22.2372 15.6829 19.5876 17.6364 17.6341C19.5899 15.6806 22.2394 14.5832 25.0021 14.5832ZM38.5438 14.0623C38.5438 14.753 38.2694 15.4154 37.781 15.9038C37.2926 16.3921 36.6303 16.6665 35.9396 16.6665C35.2489 16.6665 34.5866 16.3921 34.0982 15.9038C33.6098 15.4154 33.3354 14.753 33.3354 14.0623C33.3354 13.3717 33.6098 12.7093 34.0982 12.2209C34.5866 11.7325 35.2489 11.4582 35.9396 11.4582C36.6303 11.4582 37.2926 11.7325 37.781 12.2209C38.2694 12.7093 38.5438 13.3717 38.5438 14.0623ZM25.0021 8.33317C19.8479 8.33317 19.0063 8.34775 16.6083 8.454C14.975 8.53109 13.8792 8.74984 12.8625 9.14567C12.0117 9.45804 11.2425 9.95872 10.6125 10.6103C9.96044 11.2403 9.45908 12.0094 9.14585 12.8603C8.75001 13.8811 8.53126 14.9748 8.45626 16.6061C8.34793 18.9061 8.33335 19.7103 8.33335 24.9998C8.33335 30.1561 8.34793 30.9957 8.45418 33.3936C8.53126 35.0248 8.75001 36.1228 9.14376 37.1373C9.49793 38.0436 9.9146 38.6957 10.6063 39.3873C11.3083 40.0873 11.9604 40.5061 12.8563 40.8519C13.8854 41.2498 14.9813 41.4707 16.6063 41.5457C18.9063 41.654 19.7104 41.6665 25 41.6665C30.1563 41.6665 30.9958 41.6519 33.3938 41.5457C35.0229 41.4686 36.1188 41.2498 37.1375 40.8561C37.9875 40.5422 38.7564 40.0417 39.3875 39.3915C40.0896 38.6915 40.5084 38.0394 40.8542 37.1415C41.25 36.1165 41.4708 35.0207 41.5458 33.3915C41.6542 31.0936 41.6667 30.2873 41.6667 24.9998C41.6667 19.8457 41.6521 19.004 41.5458 16.6061C41.4688 14.9769 41.2479 13.8769 40.8542 12.8603C40.5401 12.0103 40.0397 11.2415 39.3896 10.6103C38.7599 9.95785 37.9907 9.45644 37.1396 9.14359C36.1188 8.74775 35.0229 8.529 33.3938 8.454C31.0958 8.34567 30.2938 8.33317 25.0021 8.33317ZM25.0021 4.1665C30.6625 4.1665 31.3688 4.18734 33.5917 4.2915C35.8083 4.39567 37.3209 4.74359 38.6479 5.26025C40.0229 5.78942 41.1813 6.50609 42.3396 7.66234C43.399 8.70379 44.2187 9.96356 44.7417 11.354C45.2563 12.6811 45.6063 14.1936 45.7104 16.4123C45.8083 18.6332 45.8354 19.3394 45.8354 24.9998C45.8354 30.6603 45.8146 31.3665 45.7104 33.5873C45.6063 35.8061 45.2563 37.3165 44.7417 38.6457C44.2201 40.0368 43.4002 41.2969 42.3396 42.3373C41.2979 43.3963 40.0382 44.216 38.6479 44.7394C37.3209 45.254 35.8083 45.604 33.5917 45.7082C31.3688 45.8061 30.6625 45.8332 25.0021 45.8332C19.3417 45.8332 18.6354 45.8123 16.4125 45.7082C14.1958 45.604 12.6854 45.254 11.3563 44.7394C9.96528 44.2175 8.70528 43.3976 7.6646 42.3373C6.60508 41.296 5.78535 40.0362 5.26251 38.6457C4.74585 37.3186 4.39793 35.8061 4.29376 33.5873C4.19376 31.3665 4.16876 30.6603 4.16876 24.9998C4.16876 19.3394 4.1896 18.6332 4.29376 16.4123C4.39793 14.1915 4.74585 12.6832 5.26251 11.354C5.78384 9.96271 6.60377 8.70259 7.6646 7.66234C8.70558 6.6024 9.96549 5.78261 11.3563 5.26025C12.6833 4.74359 14.1938 4.39567 16.4125 4.2915C18.6354 4.19359 19.3417 4.1665 25.0021 4.1665Z" fill="#151716" fill-opacity="0.5"/>
</g>
</svg>
