<svg width="148" height="149" viewBox="0 0 148 149" fill="none" xmlns="http://www.w3.org/2000/svg">
<g id="tabler:writing">
<path id="Vector" d="M111 117.667L98.6667 105.333V31.3333C98.6667 24.4205 104.087 19 111 19C117.913 19 123.333 24.4205 123.333 31.3333V105.333L111 117.667ZM111 117.667H30.8333C27.5623 117.667 24.4253 116.367 22.1123 114.054C19.7994 111.741 18.5 108.604 18.5 105.333C18.5 102.062 19.7994 98.9253 22.1123 96.6124C24.4253 94.2994 27.5623 93 30.8333 93H55.5C58.771 93 61.908 91.7006 64.221 89.3877C66.5339 87.0747 67.8333 83.9377 67.8333 80.6667C67.8333 77.3957 66.5339 74.2586 64.221 71.9457C61.908 69.6327 58.771 68.3333 55.5 68.3333H37M98.6667 43.6667H123.333" stroke="#001F3F" stroke-width="10" stroke-linecap="round" stroke-linejoin="round"/>
</g>
</svg>
