<svg width="50" height="50" viewBox="0 0 50 50" fill="none" xmlns="http://www.w3.org/2000/svg">
<g id="ri:twitter-line">
<path id="Vector" d="M29.3306 15.0055C28.3835 15.0053 27.4741 15.453 26.7981 16.2523C26.1222 17.0516 25.7335 18.1386 25.7159 19.2796L25.681 21.6449C25.6791 21.772 25.655 21.8972 25.6101 22.0123C25.5652 22.1274 25.5006 22.2297 25.4205 22.3125C25.3405 22.3953 25.2468 22.4568 25.1456 22.4929C25.0444 22.529 24.938 22.5389 24.8334 22.5219L22.8865 22.2021C20.3275 21.7816 17.8745 20.3624 15.52 18.0001C14.7758 22.971 16.2304 26.4146 19.7367 29.0712L21.9142 30.7202C22.0175 30.7985 22.1033 30.906 22.1642 31.0334C22.2251 31.1608 22.2592 31.3042 22.2635 31.4511C22.2678 31.5981 22.2422 31.744 22.1889 31.8763C22.1356 32.0086 22.0563 32.1231 21.9579 32.21L19.9735 33.958C21.1539 34.0481 22.2745 33.9851 23.2043 33.7628C29.0851 32.3481 32.9952 27.0168 32.9952 18.2223C32.9952 17.5045 31.7325 15.0055 29.3306 15.0055ZM23.223 19.2255C23.2448 17.7779 23.6205 16.3701 24.3031 15.1785C24.9858 13.987 25.945 13.0645 27.0607 12.5266C28.1764 11.9887 29.399 11.8594 30.5755 12.1547C31.7519 12.4501 32.8299 13.157 33.6745 14.187C34.5607 14.1795 35.3148 14.4498 37 13.2169C36.5837 15.6798 36.3768 16.7506 35.4881 18.2208C35.4881 29.696 29.6335 35.2781 23.6917 36.7063C19.6195 37.6855 13.6952 36.077 12 33.94C12.8638 33.8604 16.3788 33.4054 18.4105 31.6122C16.6904 30.2456 9.84988 25.3949 14.3458 12.3564C16.4561 15.3254 18.5962 17.3453 20.765 18.4191C22.2072 19.1324 22.5624 19.1174 23.2243 19.227L23.223 19.2255Z" fill="#182F83"/>
<rect x="0.5" y="0.5" width="49" height="49" rx="15.5" stroke="#3944BC" stroke-opacity="0.8"/>
</g>
</svg>
