<svg width="113" height="112" viewBox="0 0 113 112" fill="none" xmlns="http://www.w3.org/2000/svg">
<path id="Vector" d="M34.1783 10.5817C36.9953 13.333 38.6703 17.046 38.8687 20.9786L53.1743 6.75121C53.6656 6.20037 54.2678 5.75961 54.9414 5.45781C55.615 5.15601 56.3448 5 57.0829 5C57.821 5 58.5508 5.15601 59.2244 5.45781C59.898 5.75961 60.5002 6.20037 60.9916 6.75121L72.5611 18.7898C70.9179 19.5866 69.4134 20.6424 68.1053 21.9167C65.3209 24.9787 63.8223 28.9952 63.9205 33.1327C64.0187 37.2702 65.7061 41.2111 68.6326 44.1376C71.5591 47.0641 75.5 48.7515 79.6375 48.8497C83.775 48.9479 87.7915 47.4493 90.8535 44.665C92.1278 43.3568 93.1836 41.8523 93.9804 40.2091L106.175 52.2477C106.726 52.739 107.167 53.3412 107.469 54.0148C107.771 54.6884 107.927 55.4182 107.927 56.1563C107.927 56.8945 107.771 57.6242 107.469 58.2978C107.167 58.9714 106.726 59.5737 106.175 60.065L91.9479 74.0579C95.0294 74.2442 97.9915 75.3167 100.478 77.1463C102.965 78.9759 104.87 81.4847 105.965 84.3712C107.059 87.2578 107.297 90.399 106.649 93.4174C106.001 96.4358 104.495 99.2028 102.312 101.386C100.129 103.569 97.3624 105.075 94.344 105.723C91.3256 106.37 88.1843 106.133 85.2978 105.038C82.4113 103.943 79.9024 102.038 78.0728 99.5515C76.2432 97.065 75.1708 94.1029 74.9845 91.0214L60.6789 105.249C60.1875 105.8 59.5853 106.24 58.9117 106.542C58.2381 106.844 57.5083 107 56.7702 107C56.0321 107 55.3023 106.844 54.6287 106.542C53.9551 106.24 53.3529 105.8 52.8616 105.249L41.292 93.2102C42.9353 92.4134 44.4397 91.3576 45.7479 90.0833C48.7645 87.0459 50.451 82.9347 50.4363 78.6539C50.4216 74.3731 48.707 70.2735 45.6697 67.2569C42.6324 64.2403 38.5211 62.5538 34.2403 62.5684C29.9595 62.5831 25.8599 64.2977 22.8433 67.335C21.569 68.6432 20.5132 70.1477 19.7164 71.7909L7.67778 59.7523C7.12695 59.261 6.68618 58.6588 6.38439 57.9852C6.08259 57.3116 5.92657 56.5818 5.92657 55.8437C5.92657 55.1055 6.08259 54.3757 6.38439 53.7021C6.68618 53.0285 7.12695 52.4263 7.67778 51.935L21.9052 37.9421C17.9726 37.7437 14.2596 36.0687 11.5082 33.2517C8.50201 30.2455 6.81312 26.1682 6.81312 21.9167C6.81312 17.6652 8.50201 13.5879 11.5082 10.5817C14.5145 7.57543 18.5918 5.88654 22.8433 5.88654C27.0947 5.88654 31.1721 7.57543 34.1783 10.5817Z" stroke="#001F3F" stroke-width="10" stroke-linecap="round" stroke-linejoin="round"/>
</svg>
