<svg width="19" height="19" viewBox="0 0 19 19" fill="none" xmlns="http://www.w3.org/2000/svg">
<g id="Group">
<path id="Vector" d="M9.93799 8.36133V11.8475H14.7827C14.5699 12.9687 13.9315 13.918 12.9741 14.5563L15.8956 16.8232C17.5978 15.252 18.5798 12.9442 18.5798 10.2027C18.5798 9.56442 18.5225 8.95059 18.4161 8.36143L9.93799 8.36133Z" fill="#4285F4"/>
<path id="Vector_2" d="M4.89289 11.7114L4.23397 12.2158L1.90161 14.0325C3.38284 16.9704 6.41872 19 9.93764 19C12.3681 19 14.4058 18.198 15.8952 16.8232L12.9737 14.5563C12.1717 15.0964 11.1488 15.4238 9.93764 15.4238C7.59714 15.4238 5.60859 13.8444 4.89657 11.7166L4.89289 11.7114Z" fill="#34A853"/>
<path id="Vector_3" d="M1.90187 5.96338C1.28814 7.1745 0.936279 8.54118 0.936279 9.99783C0.936279 11.4545 1.28814 12.8212 1.90187 14.0323C1.90187 14.0404 4.89712 11.7081 4.89712 11.7081C4.71708 11.168 4.61066 10.5952 4.61066 9.99774C4.61066 9.40026 4.71708 8.82744 4.89712 8.28733L1.90187 5.96338Z" fill="#FBBC05"/>
<path id="Vector_4" d="M9.93782 4.5805C11.2636 4.5805 12.442 5.03877 13.3831 5.92261L15.9609 3.34481C14.3978 1.88816 12.3684 0.996094 9.93782 0.996094C6.41891 0.996094 3.38284 3.01744 1.90161 5.96354L4.89676 8.28768C5.60869 6.15992 7.59733 4.5805 9.93782 4.5805Z" fill="#EA4335"/>
</g>
</svg>
